<?xml version="1.0" encoding="UTF-8" standalone="no" ?>
<!DOCTYPE svg PUBLIC "-//W3C//DTD SVG 1.1//EN" "http://www.w3.org/Graphics/SVG/1.1/DTD/svg11.dtd">
<svg xmlns="http://www.w3.org/2000/svg" xmlns:xlink="http://www.w3.org/1999/xlink" version="1.1" width="500" height="500" viewBox="0 0 500 500" xml:space="preserve">
<desc>Created with Fabric.js 5.3.0</desc>
<defs>
</defs>
<g transform="matrix(0.77 0 0 0.77 250 250)" id="XKq84ZavUtLIfapoVNyIh"  >
<g style="" vector-effect="non-scaling-stroke"   >
		<g transform="matrix(3.3873010162 0 0 0.7453568546 -0.0000169365 5.5586356668)" id="tCYQRXe-pEvb0Wx-XYUNh"  >
<path style="stroke: rgb(152,72,139); stroke-width: 0; stroke-dasharray: none; stroke-linecap: butt; stroke-dashoffset: 0; stroke-linejoin: miter; stroke-miterlimit: 4; fill: rgb(237,83,83); fill-rule: nonzero; opacity: 1;" vector-effect="non-scaling-stroke"  transform=" translate(0.000005, 0)" d="M -34.66956 -18.45223 C -34.66956 -27.408810000000003 -33.07187 -34.669560000000004 -31.101029999999998 -34.669560000000004 L 31.101020000000002 -34.669560000000004 L 31.101020000000002 -34.669560000000004 C 33.071870000000004 -34.669560000000004 34.66955 -27.408820000000006 34.66955 -18.452230000000004 L 34.66955 18.452229999999997 L 34.66955 18.452229999999997 C 34.66955 27.408809999999995 33.07186 34.66956 31.101020000000002 34.66956 L -31.101029999999998 34.66956 L -31.101029999999998 34.66956 C -33.07188 34.66956 -34.66956 27.40882 -34.66956 18.452229999999997 z" stroke-linecap="round" />
</g>
		<g transform="matrix(1.5068699928 0 0 0.9699327822 -0.0000150687 -32.3797203023)" id="tEyleZASf0fZ2SmHMR40v"  >
<path style="stroke: rgb(152,72,139); stroke-width: 0; stroke-dasharray: none; stroke-linecap: butt; stroke-dashoffset: 0; stroke-linejoin: miter; stroke-miterlimit: 4; fill: rgb(237,83,83); fill-rule: nonzero; opacity: 1;" vector-effect="non-scaling-stroke"  transform=" translate(0.00001, 0)" d="M -34.66956 -22.20715 C -34.66956 -29.089949999999998 -31.078109999999995 -34.66956 -26.647839999999995 -34.66956 L 26.647820000000003 -34.66956 L 26.647820000000003 -34.66956 C 31.078100000000003 -34.66956 34.669540000000005 -29.089949999999998 34.669540000000005 -22.20715 L 34.669540000000005 22.20715 L 34.669540000000005 22.20715 C 34.669540000000005 29.089949999999998 31.078090000000003 34.66956 26.647820000000003 34.66956 L -26.647839999999995 34.66956 L -26.647839999999995 34.66956 C -31.078119999999995 34.66956 -34.66956 29.089949999999998 -34.66956 22.20715 z" stroke-linecap="round" />
</g>
		<g transform="matrix(1.8320574315 0 0 0.1896272324 -117.9898934328 -21.1486220179)" id="mNunr2Lcg0HI6-5AsP3Ad"  >
<path style="stroke: rgb(237,137,76); stroke-width: 0; stroke-dasharray: none; stroke-linecap: butt; stroke-dashoffset: 0; stroke-linejoin: miter; stroke-miterlimit: 4; fill: rgb(255,255,255); fill-rule: nonzero; opacity: 1;" vector-effect="non-scaling-stroke"  transform=" translate(0, -0.000005)" d="M -34.66956 -3.95717 C -34.66956 -20.919150000000002 -33.24632 -34.66955 -31.490669999999998 -34.66955 L 31.490670000000005 -34.66955 L 31.490670000000005 -34.66955 C 33.246320000000004 -34.66955 34.669560000000004 -20.919150000000002 34.669560000000004 -3.9571700000000014 L 34.669560000000004 3.9571799999999984 L 34.669560000000004 3.9571799999999984 C 34.669560000000004 20.919159999999998 33.246320000000004 34.66956 31.490670000000005 34.66956 L -31.490669999999998 34.66956 L -31.490669999999998 34.66956 C -33.24632 34.66956 -34.66956 20.919159999999998 -34.66956 3.9571799999999975 z" stroke-linecap="round" />
</g>
		<g transform="matrix(1.8320574315 0 0 0.1896272324 -89.7992552378 -45.0173366845)" id="DwxKsWJ9YwW2IOsfO3sgo"  >
<path style="stroke: rgb(237,137,76); stroke-width: 0; stroke-dasharray: none; stroke-linecap: butt; stroke-dashoffset: 0; stroke-linejoin: miter; stroke-miterlimit: 4; fill: rgb(255,255,255); fill-rule: nonzero; opacity: 1;" vector-effect="non-scaling-stroke"  transform=" translate(0, -0.000005)" d="M -34.66956 -3.95717 C -34.66956 -20.919150000000002 -33.24632 -34.66955 -31.490669999999998 -34.66955 L 31.490670000000005 -34.66955 L 31.490670000000005 -34.66955 C 33.246320000000004 -34.66955 34.669560000000004 -20.919150000000002 34.669560000000004 -3.9571700000000014 L 34.669560000000004 3.9571799999999984 L 34.669560000000004 3.9571799999999984 C 34.669560000000004 20.919159999999998 33.246320000000004 34.66956 31.490670000000005 34.66956 L -31.490669999999998 34.66956 L -31.490669999999998 34.66956 C -33.24632 34.66956 -34.66956 20.919159999999998 -34.66956 3.9571799999999975 z" stroke-linecap="round" />
</g>
		<g transform="matrix(1.8320574315 0 0 0.1896272324 -95.1724950405 2.6592957558)" id="NpmSLFRSBgFWdaPxnOx5c"  >
<path style="stroke: rgb(237,137,76); stroke-width: 0; stroke-dasharray: none; stroke-linecap: butt; stroke-dashoffset: 0; stroke-linejoin: miter; stroke-miterlimit: 4; fill: rgb(255,255,255); fill-rule: nonzero; opacity: 1;" vector-effect="non-scaling-stroke"  transform=" translate(0, -0.000005)" d="M -34.66956 -3.95717 C -34.66956 -20.919150000000002 -33.24632 -34.66955 -31.490669999999998 -34.66955 L 31.490670000000005 -34.66955 L 31.490670000000005 -34.66955 C 33.246320000000004 -34.66955 34.669560000000004 -20.919150000000002 34.669560000000004 -3.9571700000000014 L 34.669560000000004 3.9571799999999984 L 34.669560000000004 3.9571799999999984 C 34.669560000000004 20.919159999999998 33.246320000000004 34.66956 31.490670000000005 34.66956 L -31.490669999999998 34.66956 L -31.490669999999998 34.66956 C -33.24632 34.66956 -34.66956 20.919159999999998 -34.66956 3.9571799999999975 z" stroke-linecap="round" />
</g>
		<g transform="matrix(0.7585089293 0 0 0.7585089293 -67.4139280138 45.0282809817)" id="ScUMHQ0R0T1jPw949P6YP"  >
<path style="stroke: rgb(236,226,37); stroke-width: 0; stroke-dasharray: none; stroke-linecap: butt; stroke-dashoffset: 0; stroke-linejoin: miter; stroke-miterlimit: 4; fill: rgb(0,0,0); fill-rule: nonzero; opacity: 1;" vector-effect="non-scaling-stroke"  transform=" translate(0, 0)" d="M 0 -34.66956 C 19.13759 -34.66956 34.66956 -19.1376 34.66956 0 C 34.66956 19.13759 19.1376 34.66956 0 34.66956 C -19.13759 34.66956 -34.66956 19.1376 -34.66956 0 C -34.66956 -19.13759 -19.1376 -34.66956 0 -34.66956 z" stroke-linecap="round" />
</g>
		<g transform="matrix(0.7585089293 0 0 0.7585089293 64.4047337534 45.0282773946)" id="edHhVIGp1TGvhpV2D8QXl"  >
<path style="stroke: rgb(236,226,37); stroke-width: 0; stroke-dasharray: none; stroke-linecap: butt; stroke-dashoffset: 0; stroke-linejoin: miter; stroke-miterlimit: 4; fill: rgb(0,0,0); fill-rule: nonzero; opacity: 1;" vector-effect="non-scaling-stroke"  transform=" translate(0, 0)" d="M 0 -34.66956 C 19.13759 -34.66956 34.66956 -19.1376 34.66956 0 C 34.66956 19.13759 19.1376 34.66956 0 34.66956 C -19.13759 34.66956 -34.66956 19.1376 -34.66956 0 C -34.66956 -19.13759 -19.1376 -34.66956 0 -34.66956 z" stroke-linecap="round" />
</g>
</g>
</g>
</svg>