<?xml version="1.0" encoding="UTF-8" standalone="no" ?>
<!DOCTYPE svg PUBLIC "-//W3C//DTD SVG 1.1//EN" "http://www.w3.org/Graphics/SVG/1.1/DTD/svg11.dtd">
<svg xmlns="http://www.w3.org/2000/svg" xmlns:xlink="http://www.w3.org/1999/xlink" version="1.1" width="640" height="640" viewBox="0 0 640 640" xml:space="preserve">
<desc>Created with Fabric.js 5.3.0</desc>
<defs>
</defs>
<g transform="matrix(3.3828125 0 0 3.3828125 320 281.1764705882)" id="7cQao7OHBNVuYOBp3PXb9"  >
<path style="stroke: rgb(79,233,53); stroke-width: 0; stroke-dasharray: none; stroke-linecap: butt; stroke-dashoffset: 0; stroke-linejoin: miter; stroke-miterlimit: 4; fill: rgb(199,45,45); fill-rule: nonzero; opacity: 1;" vector-effect="non-scaling-stroke"  transform=" translate(0, 0)" d="M -36.9515 -21.27431 C -36.9515 -29.932589999999998 -29.93258 -36.951499999999996 -21.274310000000003 -36.951499999999996 L 21.274299999999993 -36.951499999999996 L 21.274299999999993 -36.951499999999996 C 29.932579999999994 -36.951499999999996 36.95148999999999 -29.932579999999994 36.95148999999999 -21.274309999999996 L 36.95148999999999 21.2743 L 36.95148999999999 21.2743 C 36.95148999999999 29.93258 29.93256999999999 36.95149 21.274299999999993 36.95149 L -21.274310000000003 36.95149 L -21.274310000000003 36.95149 C -29.932590000000005 36.95149 -36.9515 29.93257 -36.9515 21.2743 z" stroke-linecap="round" />
</g>
<g transform="matrix(0.665 0 0 0.665 255 463.2092060414)" id="A5bcoSRaJM6u1kZpazVJ2"  >
<path style="stroke: rgb(85,193,209); stroke-width: 0; stroke-dasharray: none; stroke-linecap: butt; stroke-dashoffset: 0; stroke-linejoin: miter; stroke-miterlimit: 4; fill: rgb(52,52,52); fill-rule: nonzero; opacity: 1;" vector-effect="non-scaling-stroke"  transform=" translate(0, 0)" d="M 0 -52.63158 C 29.05263 -52.63158 52.63158 -29.05263 52.63158 0 C 52.63158 29.05263 29.05263 52.63158 0 52.63158 C -29.05263 52.63158 -52.63158 29.05263 -52.63158 0 C -52.63158 -29.05263 -29.05263 -52.63158 0 -52.63158 z" stroke-linecap="round" />
</g>
<g transform="matrix(0.475 0 0 0.475 255 463.2092055414)" id="xnQDxNccENVRhxkkvSC3M"  >
<path style="stroke: rgb(85,193,209); stroke-width: 0; stroke-dasharray: none; stroke-linecap: butt; stroke-dashoffset: 0; stroke-linejoin: miter; stroke-miterlimit: 4; fill: rgb(167,167,167); fill-rule: nonzero; opacity: 1;" vector-effect="non-scaling-stroke"  transform=" translate(0, 0)" d="M 0 -52.63158 C 29.05263 -52.63158 52.63158 -29.05263 52.63158 0 C 52.63158 29.05263 29.05263 52.63158 0 52.63158 C -29.05263 52.63158 -52.63158 29.05263 -52.63158 0 C -52.63158 -29.05263 -29.05263 -52.63158 0 -52.63158 z" stroke-linecap="round" />
</g>
<g transform="matrix(0.665 0 0 0.665 385 463.2092060414)" id="m4EKb7WJLZuoLk-dr_Y-T"  >
<path style="stroke: rgb(9,5,123); stroke-width: 0; stroke-dasharray: none; stroke-linecap: butt; stroke-dashoffset: 0; stroke-linejoin: miter; stroke-miterlimit: 4; fill: rgb(52,52,52); fill-rule: nonzero; opacity: 1;" vector-effect="non-scaling-stroke"  transform=" translate(0, 0)" d="M 0 -52.63158 C 29.05263 -52.63158 52.63158 -29.05263 52.63158 0 C 52.63158 29.05263 29.05263 52.63158 0 52.63158 C -29.05263 52.63158 -52.63158 29.05263 -52.63158 0 C -52.63158 -29.05263 -29.05263 -52.63158 0 -52.63158 z" stroke-linecap="round" />
</g>
<g transform="matrix(0.475 0 0 0.475 385 463.2092060414)" id="TDRw1cWswHwOka5w2yOEi"  >
<path style="stroke: rgb(85,193,209); stroke-width: 0; stroke-dasharray: none; stroke-linecap: butt; stroke-dashoffset: 0; stroke-linejoin: miter; stroke-miterlimit: 4; fill: rgb(167,167,167); fill-rule: nonzero; opacity: 1;" vector-effect="non-scaling-stroke"  transform=" translate(0, 0)" d="M 0 -52.63158 C 29.05263 -52.63158 52.63158 -29.05263 52.63158 0 C 52.63158 29.05263 29.05263 52.63158 0 52.63158 C -29.05263 52.63158 -52.63158 29.05263 -52.63158 0 C -52.63158 -29.05263 -29.05263 -52.63158 0 -52.63158 z" stroke-linecap="round" />
</g>
</svg>