<?xml version="1.0" encoding="UTF-8" standalone="no" ?>
<!DOCTYPE svg PUBLIC "-//W3C//DTD SVG 1.1//EN" "http://www.w3.org/Graphics/SVG/1.1/DTD/svg11.dtd">
<svg xmlns="http://www.w3.org/2000/svg" xmlns:xlink="http://www.w3.org/1999/xlink" version="1.1" width="640" height="640" viewBox="0 0 640 640" xml:space="preserve">
<desc>Created with Fabric.js 5.3.0</desc>
<defs>
</defs>
<g transform="matrix(5.1129071943 0 0 1.1250669504 320 328.3903934593)" id="zWYD1Wj4gM57QuhTQa-A2"  >
<path style="stroke: rgb(152,72,139); stroke-width: 0; stroke-dasharray: none; stroke-linecap: butt; stroke-dashoffset: 0; stroke-linejoin: miter; stroke-miterlimit: 4; fill: rgb(237,83,83); fill-rule: nonzero; opacity: 1;" vector-effect="non-scaling-stroke"  transform=" translate(0, 0)" d="M -34.66956 -18.45223 C -34.66956 -27.408810000000003 -33.07187 -34.669560000000004 -31.101029999999998 -34.669560000000004 L 31.101020000000002 -34.669560000000004 L 31.101020000000002 -34.669560000000004 C 33.071870000000004 -34.669560000000004 34.66955 -27.408820000000006 34.66955 -18.452230000000004 L 34.66955 18.452229999999997 L 34.66955 18.452229999999997 C 34.66955 27.408809999999995 33.07186 34.66956 31.101020000000002 34.66956 L -31.101029999999998 34.66956 L -31.101029999999998 34.66956 C -33.07188 34.66956 -34.66956 27.40882 -34.66956 18.452229999999997 z" stroke-linecap="round" />
</g>
<g transform="matrix(2.2745207439 0 0 1.4640494826 320 271.1249504871)" id="B-sYVI_sD7GFmL5Oi7nyX"  >
<path style="stroke: rgb(152,72,139); stroke-width: 0; stroke-dasharray: none; stroke-linecap: butt; stroke-dashoffset: 0; stroke-linejoin: miter; stroke-miterlimit: 4; fill: rgb(237,83,83); fill-rule: nonzero; opacity: 1;" vector-effect="non-scaling-stroke"  transform=" translate(0, 0)" d="M -34.66956 -22.20715 C -34.66956 -29.089949999999998 -31.078109999999995 -34.66956 -26.647839999999995 -34.66956 L 26.647820000000003 -34.66956 L 26.647820000000003 -34.66956 C 31.078100000000003 -34.66956 34.669540000000005 -29.089949999999998 34.669540000000005 -22.20715 L 34.669540000000005 22.20715 L 34.669540000000005 22.20715 C 34.669540000000005 29.089949999999998 31.078090000000003 34.66956 26.647820000000003 34.66956 L -26.647839999999995 34.66956 L -26.647839999999995 34.66956 C -31.078119999999995 34.66956 -34.66956 29.089949999999998 -34.66956 22.20715 z" stroke-linecap="round" />
</g>
<g transform="matrix(2.7653697079 0 0 0.2862297847 141.9020476486 288.07755024)" id="kmM3Cs_6R7y0SXho-_0cF"  >
<path style="stroke: rgb(237,137,76); stroke-width: 0; stroke-dasharray: none; stroke-linecap: butt; stroke-dashoffset: 0; stroke-linejoin: miter; stroke-miterlimit: 4; fill: rgb(255,255,255); fill-rule: nonzero; opacity: 1;" vector-effect="non-scaling-stroke"  transform=" translate(0, 0)" d="M -34.66956 -3.95717 C -34.66956 -20.919150000000002 -33.24632 -34.66955 -31.490669999999998 -34.66955 L 31.490670000000005 -34.66955 L 31.490670000000005 -34.66955 C 33.246320000000004 -34.66955 34.669560000000004 -20.919150000000002 34.669560000000004 -3.9571700000000014 L 34.669560000000004 3.9571799999999984 L 34.669560000000004 3.9571799999999984 C 34.669560000000004 20.919159999999998 33.246320000000004 34.66956 31.490670000000005 34.66956 L -31.490669999999998 34.66956 L -31.490669999999998 34.66956 C -33.24632 34.66956 -34.66956 20.919159999999998 -34.66956 3.9571799999999975 z" stroke-linecap="round" />
</g>
<g transform="matrix(2.7653697079 0 0 0.2862297847 184.4539543581 252.0493016866)" id="8s-v5Zo6zrQUqPJe0lxGG"  >
<path style="stroke: rgb(237,137,76); stroke-width: 0; stroke-dasharray: none; stroke-linecap: butt; stroke-dashoffset: 0; stroke-linejoin: miter; stroke-miterlimit: 4; fill: rgb(255,255,255); fill-rule: nonzero; opacity: 1;" vector-effect="non-scaling-stroke"  transform=" translate(0, 0)" d="M -34.66956 -3.95717 C -34.66956 -20.919150000000002 -33.24632 -34.66955 -31.490669999999998 -34.66955 L 31.490670000000005 -34.66955 L 31.490670000000005 -34.66955 C 33.246320000000004 -34.66955 34.669560000000004 -20.919150000000002 34.669560000000004 -3.9571700000000014 L 34.669560000000004 3.9571799999999984 L 34.669560000000004 3.9571799999999984 C 34.669560000000004 20.919159999999998 33.246320000000004 34.66956 31.490670000000005 34.66956 L -31.490669999999998 34.66956 L -31.490669999999998 34.66956 C -33.24632 34.66956 -34.66956 20.919159999999998 -34.66956 3.9571799999999975 z" stroke-linecap="round" />
</g>
<g transform="matrix(2.7653697079 0 0 0.2862297847 176.3434037124 324.0140298984)" id="qkzuV41hAgIKgt9Lbos33"  >
<path style="stroke: rgb(237,137,76); stroke-width: 0; stroke-dasharray: none; stroke-linecap: butt; stroke-dashoffset: 0; stroke-linejoin: miter; stroke-miterlimit: 4; fill: rgb(255,255,255); fill-rule: nonzero; opacity: 1;" vector-effect="non-scaling-stroke"  transform=" translate(0, 0)" d="M -34.66956 -3.95717 C -34.66956 -20.919150000000002 -33.24632 -34.66955 -31.490669999999998 -34.66955 L 31.490670000000005 -34.66955 L 31.490670000000005 -34.66955 C 33.246320000000004 -34.66955 34.669560000000004 -20.919150000000002 34.669560000000004 -3.9571700000000014 L 34.669560000000004 3.9571799999999984 L 34.669560000000004 3.9571799999999984 C 34.669560000000004 20.919159999999998 33.246320000000004 34.66956 31.490670000000005 34.66956 L -31.490669999999998 34.66956 L -31.490669999999998 34.66956 C -33.24632 34.66956 -34.66956 20.919159999999998 -34.66956 3.9571799999999975 z" stroke-linecap="round" />
</g>
<g transform="matrix(1.1449191386 0 0 1.1449191386 218.2431275264 387.9672165762)" id="C3Lof_VQPYiHc82f2bYT2"  >
<path style="stroke: rgb(236,226,37); stroke-width: 0; stroke-dasharray: none; stroke-linecap: butt; stroke-dashoffset: 0; stroke-linejoin: miter; stroke-miterlimit: 4; fill: rgb(0,0,0); fill-rule: nonzero; opacity: 1;" vector-effect="non-scaling-stroke"  transform=" translate(0, 0)" d="M 0 -34.66956 C 19.13759 -34.66956 34.66956 -19.1376 34.66956 0 C 34.66956 19.13759 19.1376 34.66956 0 34.66956 C -19.13759 34.66956 -34.66956 19.1376 -34.66956 0 C -34.66956 -19.13759 -19.1376 -34.66956 0 -34.66956 z" stroke-linecap="round" />
</g>
<g transform="matrix(1.1449191386 0 0 1.1449191386 417.214692458 387.9672111617)" id="QuTinFqrGE_kDSQ-yyavL"  >
<path style="stroke: rgb(236,226,37); stroke-width: 0; stroke-dasharray: none; stroke-linecap: butt; stroke-dashoffset: 0; stroke-linejoin: miter; stroke-miterlimit: 4; fill: rgb(0,0,0); fill-rule: nonzero; opacity: 1;" vector-effect="non-scaling-stroke"  transform=" translate(0, 0)" d="M 0 -34.66956 C 19.13759 -34.66956 34.66956 -19.1376 34.66956 0 C 34.66956 19.13759 19.1376 34.66956 0 34.66956 C -19.13759 34.66956 -34.66956 19.1376 -34.66956 0 C -34.66956 -19.13759 -19.1376 -34.66956 0 -34.66956 z" stroke-linecap="round" />
</g>
</svg>